<mxfile host="Electron" modified="2023-04-06T14:06:30.086Z" agent="Mozilla/5.0 (Windows NT 10.0; Win64; x64) AppleWebKit/537.36 (KHTML, like Gecko) draw.io/21.1.2 Chrome/106.0.5249.199 Electron/21.4.3 Safari/537.36" etag="As2ynkptq4WdmulqjqSa" version="21.1.2" type="device">
  <diagram name="Page-1" id="tWQN-asUoCm8YYXKyLHe">
    <mxGraphModel dx="1276" dy="654" grid="1" gridSize="10" guides="1" tooltips="1" connect="1" arrows="1" fold="1" page="1" pageScale="1" pageWidth="827" pageHeight="1169" math="0" shadow="0">
      <root>
        <mxCell id="0" />
        <mxCell id="1" parent="0" />
        <mxCell id="fKbLTwSa_AMhw6pHvxHb-1" value="STORES" style="swimlane;fontStyle=0;childLayout=stackLayout;horizontal=1;startSize=30;horizontalStack=0;resizeParent=1;resizeParentMax=0;resizeLast=0;collapsible=1;marginBottom=0;whiteSpace=wrap;html=1;fillColor=#f8cecc;strokeColor=#b85450;" parent="1" vertex="1">
          <mxGeometry x="108" y="240" width="140" height="180" as="geometry" />
        </mxCell>
        <mxCell id="fKbLTwSa_AMhw6pHvxHb-5" value="StoreID: int" style="text;strokeColor=none;fillColor=none;align=left;verticalAlign=middle;spacingLeft=4;spacingRight=4;overflow=hidden;points=[[0,0.5],[1,0.5]];portConstraint=eastwest;rotatable=0;whiteSpace=wrap;html=1;" parent="fKbLTwSa_AMhw6pHvxHb-1" vertex="1">
          <mxGeometry y="30" width="140" height="30" as="geometry" />
        </mxCell>
        <mxCell id="WCWMVQkRDnlybE9e6MJ0-1" value="ManagerID: int" style="text;strokeColor=none;fillColor=none;align=left;verticalAlign=middle;spacingLeft=4;spacingRight=4;overflow=hidden;points=[[0,0.5],[1,0.5]];portConstraint=eastwest;rotatable=0;whiteSpace=wrap;html=1;" parent="fKbLTwSa_AMhw6pHvxHb-1" vertex="1">
          <mxGeometry y="60" width="140" height="30" as="geometry" />
        </mxCell>
        <mxCell id="fKbLTwSa_AMhw6pHvxHb-7" value="Address: string" style="text;strokeColor=none;fillColor=none;align=left;verticalAlign=middle;spacingLeft=4;spacingRight=4;overflow=hidden;points=[[0,0.5],[1,0.5]];portConstraint=eastwest;rotatable=0;whiteSpace=wrap;html=1;" parent="fKbLTwSa_AMhw6pHvxHb-1" vertex="1">
          <mxGeometry y="90" width="140" height="30" as="geometry" />
        </mxCell>
        <mxCell id="fKbLTwSa_AMhw6pHvxHb-6" value="+ create()" style="text;strokeColor=none;fillColor=none;align=left;verticalAlign=middle;spacingLeft=4;spacingRight=4;overflow=hidden;points=[[0,0.5],[1,0.5]];portConstraint=eastwest;rotatable=0;whiteSpace=wrap;html=1;" parent="fKbLTwSa_AMhw6pHvxHb-1" vertex="1">
          <mxGeometry y="120" width="140" height="30" as="geometry" />
        </mxCell>
        <mxCell id="fKbLTwSa_AMhw6pHvxHb-4" value="+ update()" style="text;strokeColor=none;fillColor=none;align=left;verticalAlign=middle;spacingLeft=4;spacingRight=4;overflow=hidden;points=[[0,0.5],[1,0.5]];portConstraint=eastwest;rotatable=0;whiteSpace=wrap;html=1;" parent="fKbLTwSa_AMhw6pHvxHb-1" vertex="1">
          <mxGeometry y="150" width="140" height="30" as="geometry" />
        </mxCell>
        <mxCell id="fKbLTwSa_AMhw6pHvxHb-16" value="" style="endArrow=none;html=1;rounded=0;exitX=0.014;exitY=-0.078;exitDx=0;exitDy=0;exitPerimeter=0;entryX=1.005;entryY=-0.078;entryDx=0;entryDy=0;entryPerimeter=0;" parent="fKbLTwSa_AMhw6pHvxHb-1" source="fKbLTwSa_AMhw6pHvxHb-6" target="fKbLTwSa_AMhw6pHvxHb-6" edge="1">
          <mxGeometry width="50" height="50" relative="1" as="geometry">
            <mxPoint x="170" y="260" as="sourcePoint" />
            <mxPoint x="220" y="210" as="targetPoint" />
          </mxGeometry>
        </mxCell>
        <mxCell id="WCWMVQkRDnlybE9e6MJ0-8" value="" style="endArrow=classic;html=1;rounded=0;" parent="fKbLTwSa_AMhw6pHvxHb-1" target="fKbLTwSa_AMhw6pHvxHb-8" edge="1">
          <mxGeometry width="50" height="50" relative="1" as="geometry">
            <mxPoint x="72" y="180" as="sourcePoint" />
            <mxPoint x="122" y="130" as="targetPoint" />
          </mxGeometry>
        </mxCell>
        <mxCell id="WCWMVQkRDnlybE9e6MJ0-9" value="HOLD" style="edgeLabel;html=1;align=center;verticalAlign=middle;resizable=0;points=[];" parent="WCWMVQkRDnlybE9e6MJ0-8" vertex="1" connectable="0">
          <mxGeometry x="-0.336" y="-2" relative="1" as="geometry">
            <mxPoint as="offset" />
          </mxGeometry>
        </mxCell>
        <mxCell id="fKbLTwSa_AMhw6pHvxHb-8" value="ITEMS" style="swimlane;fontStyle=0;childLayout=stackLayout;horizontal=1;startSize=30;horizontalStack=0;resizeParent=1;resizeParentMax=0;resizeLast=0;collapsible=1;marginBottom=0;whiteSpace=wrap;html=1;fillColor=#f8cecc;strokeColor=#b85450;" parent="1" vertex="1">
          <mxGeometry x="108" y="560" width="140" height="210" as="geometry" />
        </mxCell>
        <mxCell id="fKbLTwSa_AMhw6pHvxHb-10" value="ItemID: int" style="text;strokeColor=none;fillColor=none;align=left;verticalAlign=middle;spacingLeft=4;spacingRight=4;overflow=hidden;points=[[0,0.5],[1,0.5]];portConstraint=eastwest;rotatable=0;whiteSpace=wrap;html=1;" parent="fKbLTwSa_AMhw6pHvxHb-8" vertex="1">
          <mxGeometry y="30" width="140" height="30" as="geometry" />
        </mxCell>
        <mxCell id="WCWMVQkRDnlybE9e6MJ0-3" value="Size: float" style="text;strokeColor=none;fillColor=none;align=left;verticalAlign=middle;spacingLeft=4;spacingRight=4;overflow=hidden;points=[[0,0.5],[1,0.5]];portConstraint=eastwest;rotatable=0;whiteSpace=wrap;html=1;" parent="fKbLTwSa_AMhw6pHvxHb-8" vertex="1">
          <mxGeometry y="60" width="140" height="30" as="geometry" />
        </mxCell>
        <mxCell id="fKbLTwSa_AMhw6pHvxHb-13" value="Note: string" style="text;strokeColor=none;fillColor=none;align=left;verticalAlign=middle;spacingLeft=4;spacingRight=4;overflow=hidden;points=[[0,0.5],[1,0.5]];portConstraint=eastwest;rotatable=0;whiteSpace=wrap;html=1;" parent="fKbLTwSa_AMhw6pHvxHb-8" vertex="1">
          <mxGeometry y="90" width="140" height="30" as="geometry" />
        </mxCell>
        <mxCell id="WCWMVQkRDnlybE9e6MJ0-4" value="Color: string" style="text;strokeColor=none;fillColor=none;align=left;verticalAlign=middle;spacingLeft=4;spacingRight=4;overflow=hidden;points=[[0,0.5],[1,0.5]];portConstraint=eastwest;rotatable=0;whiteSpace=wrap;html=1;" parent="fKbLTwSa_AMhw6pHvxHb-8" vertex="1">
          <mxGeometry y="120" width="140" height="30" as="geometry" />
        </mxCell>
        <mxCell id="fKbLTwSa_AMhw6pHvxHb-15" value="+ create()" style="text;strokeColor=none;fillColor=none;align=left;verticalAlign=middle;spacingLeft=4;spacingRight=4;overflow=hidden;points=[[0,0.5],[1,0.5]];portConstraint=eastwest;rotatable=0;whiteSpace=wrap;html=1;" parent="fKbLTwSa_AMhw6pHvxHb-8" vertex="1">
          <mxGeometry y="150" width="140" height="30" as="geometry" />
        </mxCell>
        <mxCell id="fKbLTwSa_AMhw6pHvxHb-14" value="+ update()" style="text;strokeColor=none;fillColor=none;align=left;verticalAlign=middle;spacingLeft=4;spacingRight=4;overflow=hidden;points=[[0,0.5],[1,0.5]];portConstraint=eastwest;rotatable=0;whiteSpace=wrap;html=1;" parent="fKbLTwSa_AMhw6pHvxHb-8" vertex="1">
          <mxGeometry y="180" width="140" height="30" as="geometry" />
        </mxCell>
        <mxCell id="WCWMVQkRDnlybE9e6MJ0-5" value="" style="endArrow=none;html=1;rounded=0;exitX=-0.001;exitY=0.013;exitDx=0;exitDy=0;exitPerimeter=0;entryX=1.016;entryY=-0.04;entryDx=0;entryDy=0;entryPerimeter=0;" parent="fKbLTwSa_AMhw6pHvxHb-8" source="fKbLTwSa_AMhw6pHvxHb-15" target="fKbLTwSa_AMhw6pHvxHb-15" edge="1">
          <mxGeometry width="50" height="50" relative="1" as="geometry">
            <mxPoint x="182" y="40" as="sourcePoint" />
            <mxPoint x="232" y="-10" as="targetPoint" />
          </mxGeometry>
        </mxCell>
        <mxCell id="fKbLTwSa_AMhw6pHvxHb-17" value="CITIES" style="swimlane;fontStyle=0;childLayout=stackLayout;horizontal=1;startSize=30;horizontalStack=0;resizeParent=1;resizeParentMax=0;resizeLast=0;collapsible=1;marginBottom=0;whiteSpace=wrap;html=1;fillColor=#f8cecc;strokeColor=#b85450;" parent="1" vertex="1">
          <mxGeometry x="368" y="90" width="140" height="180" as="geometry" />
        </mxCell>
        <mxCell id="fKbLTwSa_AMhw6pHvxHb-20" value="cityName: string" style="text;strokeColor=none;fillColor=none;align=left;verticalAlign=middle;spacingLeft=4;spacingRight=4;overflow=hidden;points=[[0,0.5],[1,0.5]];portConstraint=eastwest;rotatable=0;whiteSpace=wrap;html=1;" parent="fKbLTwSa_AMhw6pHvxHb-17" vertex="1">
          <mxGeometry y="30" width="140" height="30" as="geometry" />
        </mxCell>
        <mxCell id="fKbLTwSa_AMhw6pHvxHb-21" value="locationHQad: string" style="text;strokeColor=none;fillColor=none;align=left;verticalAlign=middle;spacingLeft=4;spacingRight=4;overflow=hidden;points=[[0,0.5],[1,0.5]];portConstraint=eastwest;rotatable=0;whiteSpace=wrap;html=1;" parent="fKbLTwSa_AMhw6pHvxHb-17" vertex="1">
          <mxGeometry y="60" width="140" height="30" as="geometry" />
        </mxCell>
        <mxCell id="hNPoDgTNuxjrgSZhUWBY-5" value="province: string" style="text;strokeColor=none;fillColor=none;align=left;verticalAlign=middle;spacingLeft=4;spacingRight=4;overflow=hidden;points=[[0,0.5],[1,0.5]];portConstraint=eastwest;rotatable=0;whiteSpace=wrap;html=1;" parent="fKbLTwSa_AMhw6pHvxHb-17" vertex="1">
          <mxGeometry y="90" width="140" height="30" as="geometry" />
        </mxCell>
        <mxCell id="fKbLTwSa_AMhw6pHvxHb-22" value="+ add()" style="text;strokeColor=none;fillColor=none;align=left;verticalAlign=middle;spacingLeft=4;spacingRight=4;overflow=hidden;points=[[0,0.5],[1,0.5]];portConstraint=eastwest;rotatable=0;whiteSpace=wrap;html=1;" parent="fKbLTwSa_AMhw6pHvxHb-17" vertex="1">
          <mxGeometry y="120" width="140" height="30" as="geometry" />
        </mxCell>
        <mxCell id="fKbLTwSa_AMhw6pHvxHb-23" value="+ update()" style="text;strokeColor=none;fillColor=none;align=left;verticalAlign=middle;spacingLeft=4;spacingRight=4;overflow=hidden;points=[[0,0.5],[1,0.5]];portConstraint=eastwest;rotatable=0;whiteSpace=wrap;html=1;" parent="fKbLTwSa_AMhw6pHvxHb-17" vertex="1">
          <mxGeometry y="150" width="140" height="30" as="geometry" />
        </mxCell>
        <mxCell id="hNPoDgTNuxjrgSZhUWBY-6" value="" style="endArrow=none;html=1;rounded=0;entryX=1.004;entryY=-0.04;entryDx=0;entryDy=0;entryPerimeter=0;exitX=-0.013;exitY=-0.067;exitDx=0;exitDy=0;exitPerimeter=0;" parent="fKbLTwSa_AMhw6pHvxHb-17" source="fKbLTwSa_AMhw6pHvxHb-22" target="fKbLTwSa_AMhw6pHvxHb-22" edge="1">
          <mxGeometry width="50" height="50" relative="1" as="geometry">
            <mxPoint x="32" y="320" as="sourcePoint" />
            <mxPoint x="82" y="270" as="targetPoint" />
          </mxGeometry>
        </mxCell>
        <mxCell id="fKbLTwSa_AMhw6pHvxHb-25" value="ORDERED" style="swimlane;fontStyle=0;childLayout=stackLayout;horizontal=1;startSize=30;horizontalStack=0;resizeParent=1;resizeParentMax=0;resizeLast=0;collapsible=1;marginBottom=0;whiteSpace=wrap;html=1;fillColor=#f8cecc;strokeColor=#b85450;" parent="1" vertex="1">
          <mxGeometry x="400" y="560" width="140" height="150" as="geometry" />
        </mxCell>
        <mxCell id="fKbLTwSa_AMhw6pHvxHb-26" value="OrderNum: int" style="text;strokeColor=none;fillColor=none;align=left;verticalAlign=middle;spacingLeft=4;spacingRight=4;overflow=hidden;points=[[0,0.5],[1,0.5]];portConstraint=eastwest;rotatable=0;whiteSpace=wrap;html=1;" parent="fKbLTwSa_AMhw6pHvxHb-25" vertex="1">
          <mxGeometry y="30" width="140" height="30" as="geometry" />
        </mxCell>
        <mxCell id="fKbLTwSa_AMhw6pHvxHb-27" value="OrderDate: datetime" style="text;strokeColor=none;fillColor=none;align=left;verticalAlign=middle;spacingLeft=4;spacingRight=4;overflow=hidden;points=[[0,0.5],[1,0.5]];portConstraint=eastwest;rotatable=0;whiteSpace=wrap;html=1;" parent="fKbLTwSa_AMhw6pHvxHb-25" vertex="1">
          <mxGeometry y="60" width="140" height="30" as="geometry" />
        </mxCell>
        <mxCell id="fKbLTwSa_AMhw6pHvxHb-30" value="+ create()" style="text;strokeColor=none;fillColor=none;align=left;verticalAlign=middle;spacingLeft=4;spacingRight=4;overflow=hidden;points=[[0,0.5],[1,0.5]];portConstraint=eastwest;rotatable=0;whiteSpace=wrap;html=1;" parent="fKbLTwSa_AMhw6pHvxHb-25" vertex="1">
          <mxGeometry y="90" width="140" height="30" as="geometry" />
        </mxCell>
        <mxCell id="fKbLTwSa_AMhw6pHvxHb-31" value="+ update()" style="text;strokeColor=none;fillColor=none;align=left;verticalAlign=middle;spacingLeft=4;spacingRight=4;overflow=hidden;points=[[0,0.5],[1,0.5]];portConstraint=eastwest;rotatable=0;whiteSpace=wrap;html=1;" parent="fKbLTwSa_AMhw6pHvxHb-25" vertex="1">
          <mxGeometry y="120" width="140" height="30" as="geometry" />
        </mxCell>
        <mxCell id="fKbLTwSa_AMhw6pHvxHb-32" value="" style="endArrow=none;html=1;rounded=0;exitX=0.014;exitY=-0.078;exitDx=0;exitDy=0;exitPerimeter=0;entryX=1.005;entryY=-0.078;entryDx=0;entryDy=0;entryPerimeter=0;" parent="fKbLTwSa_AMhw6pHvxHb-25" source="fKbLTwSa_AMhw6pHvxHb-30" target="fKbLTwSa_AMhw6pHvxHb-30" edge="1">
          <mxGeometry width="50" height="50" relative="1" as="geometry">
            <mxPoint x="170" y="260" as="sourcePoint" />
            <mxPoint x="220" y="210" as="targetPoint" />
          </mxGeometry>
        </mxCell>
        <mxCell id="fKbLTwSa_AMhw6pHvxHb-33" value="CUSTOMERS" style="swimlane;fontStyle=0;childLayout=stackLayout;horizontal=1;startSize=30;horizontalStack=0;resizeParent=1;resizeParentMax=0;resizeLast=0;collapsible=1;marginBottom=0;whiteSpace=wrap;html=1;fillColor=#f8cecc;strokeColor=#b85450;" parent="1" vertex="1">
          <mxGeometry x="610" y="320" width="140" height="210" as="geometry" />
        </mxCell>
        <mxCell id="fKbLTwSa_AMhw6pHvxHb-36" value="CustomerID: int" style="text;strokeColor=none;fillColor=none;align=left;verticalAlign=middle;spacingLeft=4;spacingRight=4;overflow=hidden;points=[[0,0.5],[1,0.5]];portConstraint=eastwest;rotatable=0;whiteSpace=wrap;html=1;" parent="fKbLTwSa_AMhw6pHvxHb-33" vertex="1">
          <mxGeometry y="30" width="140" height="30" as="geometry" />
        </mxCell>
        <mxCell id="fKbLTwSa_AMhw6pHvxHb-37" value="Customer Name: string" style="text;strokeColor=none;fillColor=none;align=left;verticalAlign=middle;spacingLeft=4;spacingRight=4;overflow=hidden;points=[[0,0.5],[1,0.5]];portConstraint=eastwest;rotatable=0;whiteSpace=wrap;html=1;" parent="fKbLTwSa_AMhw6pHvxHb-33" vertex="1">
          <mxGeometry y="60" width="140" height="30" as="geometry" />
        </mxCell>
        <mxCell id="hNPoDgTNuxjrgSZhUWBY-8" value="Address: Address" style="text;strokeColor=none;fillColor=none;align=left;verticalAlign=middle;spacingLeft=4;spacingRight=4;overflow=hidden;points=[[0,0.5],[1,0.5]];portConstraint=eastwest;rotatable=0;whiteSpace=wrap;html=1;" parent="fKbLTwSa_AMhw6pHvxHb-33" vertex="1">
          <mxGeometry y="90" width="140" height="30" as="geometry" />
        </mxCell>
        <mxCell id="hNPoDgTNuxjrgSZhUWBY-7" value="Phone: int" style="text;strokeColor=none;fillColor=none;align=left;verticalAlign=middle;spacingLeft=4;spacingRight=4;overflow=hidden;points=[[0,0.5],[1,0.5]];portConstraint=eastwest;rotatable=0;whiteSpace=wrap;html=1;" parent="fKbLTwSa_AMhw6pHvxHb-33" vertex="1">
          <mxGeometry y="120" width="140" height="30" as="geometry" />
        </mxCell>
        <mxCell id="fKbLTwSa_AMhw6pHvxHb-38" value="+ create()" style="text;strokeColor=none;fillColor=none;align=left;verticalAlign=middle;spacingLeft=4;spacingRight=4;overflow=hidden;points=[[0,0.5],[1,0.5]];portConstraint=eastwest;rotatable=0;whiteSpace=wrap;html=1;" parent="fKbLTwSa_AMhw6pHvxHb-33" vertex="1">
          <mxGeometry y="150" width="140" height="30" as="geometry" />
        </mxCell>
        <mxCell id="fKbLTwSa_AMhw6pHvxHb-39" value="+ update()" style="text;strokeColor=none;fillColor=none;align=left;verticalAlign=middle;spacingLeft=4;spacingRight=4;overflow=hidden;points=[[0,0.5],[1,0.5]];portConstraint=eastwest;rotatable=0;whiteSpace=wrap;html=1;" parent="fKbLTwSa_AMhw6pHvxHb-33" vertex="1">
          <mxGeometry y="180" width="140" height="30" as="geometry" />
        </mxCell>
        <mxCell id="fKbLTwSa_AMhw6pHvxHb-40" value="" style="endArrow=none;html=1;rounded=0;exitX=0.014;exitY=-0.078;exitDx=0;exitDy=0;exitPerimeter=0;entryX=1.005;entryY=-0.078;entryDx=0;entryDy=0;entryPerimeter=0;" parent="fKbLTwSa_AMhw6pHvxHb-33" source="fKbLTwSa_AMhw6pHvxHb-38" target="fKbLTwSa_AMhw6pHvxHb-38" edge="1">
          <mxGeometry width="50" height="50" relative="1" as="geometry">
            <mxPoint x="170" y="260" as="sourcePoint" />
            <mxPoint x="220" y="210" as="targetPoint" />
          </mxGeometry>
        </mxCell>
        <mxCell id="Ky7gmDlUNVWXy1pPphro-25" value="&lt;div style=&quot;text-align: left; font-size: 15px;&quot;&gt;&lt;span style=&quot;background-color: initial;&quot;&gt;&lt;font style=&quot;font-size: 15px;&quot;&gt;Trương Văn Khải - 21520274&lt;/font&gt;&lt;/span&gt;&lt;/div&gt;&lt;div style=&quot;text-align: left; font-size: 15px;&quot;&gt;&lt;span style=&quot;background-color: initial;&quot;&gt;&lt;font style=&quot;font-size: 15px;&quot;&gt;Lê Yến Nhi - 21522427&lt;/font&gt;&lt;/span&gt;&lt;/div&gt;&lt;div style=&quot;text-align: left; font-size: 15px;&quot;&gt;&lt;span style=&quot;background-color: initial;&quot;&gt;&lt;font style=&quot;font-size: 15px;&quot;&gt;Ngô Phúc Danh - 21521924&lt;/font&gt;&lt;/span&gt;&lt;/div&gt;&lt;div style=&quot;text-align: left; font-size: 15px;&quot;&gt;&lt;span style=&quot;background-color: initial;&quot;&gt;&lt;font style=&quot;font-size: 15px;&quot;&gt;Lê Ngô Minh Đức - 21520195&lt;/font&gt;&lt;/span&gt;&lt;/div&gt;" style="text;html=1;strokeColor=none;fillColor=none;align=center;verticalAlign=middle;whiteSpace=wrap;rounded=0;" parent="1" vertex="1">
          <mxGeometry width="280" height="80" as="geometry" />
        </mxCell>
        <mxCell id="WCWMVQkRDnlybE9e6MJ0-6" value="" style="endArrow=classic;html=1;rounded=0;entryX=-0.02;entryY=0.112;entryDx=0;entryDy=0;entryPerimeter=0;" parent="1" target="fKbLTwSa_AMhw6pHvxHb-17" edge="1">
          <mxGeometry width="50" height="50" relative="1" as="geometry">
            <mxPoint x="180" y="240" as="sourcePoint" />
            <mxPoint x="230" y="190" as="targetPoint" />
            <Array as="points">
              <mxPoint x="180" y="110" />
            </Array>
          </mxGeometry>
        </mxCell>
        <mxCell id="WCWMVQkRDnlybE9e6MJ0-7" value="LOCATED" style="edgeLabel;html=1;align=center;verticalAlign=middle;resizable=0;points=[];" parent="WCWMVQkRDnlybE9e6MJ0-6" vertex="1" connectable="0">
          <mxGeometry x="-0.4217" y="3" relative="1" as="geometry">
            <mxPoint as="offset" />
          </mxGeometry>
        </mxCell>
        <mxCell id="WCWMVQkRDnlybE9e6MJ0-10" value="" style="endArrow=classic;html=1;rounded=0;exitX=1;exitY=0.057;exitDx=0;exitDy=0;exitPerimeter=0;entryX=-0.027;entryY=0.073;entryDx=0;entryDy=0;entryPerimeter=0;" parent="1" source="fKbLTwSa_AMhw6pHvxHb-8" target="fKbLTwSa_AMhw6pHvxHb-25" edge="1">
          <mxGeometry width="50" height="50" relative="1" as="geometry">
            <mxPoint x="320" y="530" as="sourcePoint" />
            <mxPoint x="370" y="480" as="targetPoint" />
          </mxGeometry>
        </mxCell>
        <mxCell id="WCWMVQkRDnlybE9e6MJ0-11" value="ORDERING ITEM" style="edgeLabel;html=1;align=center;verticalAlign=middle;resizable=0;points=[];" parent="WCWMVQkRDnlybE9e6MJ0-10" vertex="1" connectable="0">
          <mxGeometry x="0.1936" y="-1" relative="1" as="geometry">
            <mxPoint as="offset" />
          </mxGeometry>
        </mxCell>
        <mxCell id="WCWMVQkRDnlybE9e6MJ0-12" value="" style="endArrow=classic;html=1;rounded=0;entryX=0.012;entryY=0.073;entryDx=0;entryDy=0;entryPerimeter=0;" parent="1" target="fKbLTwSa_AMhw6pHvxHb-33" edge="1">
          <mxGeometry width="50" height="50" relative="1" as="geometry">
            <mxPoint x="470" y="560" as="sourcePoint" />
            <mxPoint x="520" y="510" as="targetPoint" />
            <Array as="points">
              <mxPoint x="470" y="335" />
            </Array>
          </mxGeometry>
        </mxCell>
        <mxCell id="WCWMVQkRDnlybE9e6MJ0-13" value="PLACE" style="edgeLabel;html=1;align=center;verticalAlign=middle;resizable=0;points=[];" parent="WCWMVQkRDnlybE9e6MJ0-12" vertex="1" connectable="0">
          <mxGeometry x="-0.1998" y="-1" relative="1" as="geometry">
            <mxPoint y="1" as="offset" />
          </mxGeometry>
        </mxCell>
        <mxCell id="WCWMVQkRDnlybE9e6MJ0-15" value="" style="endArrow=classic;html=1;rounded=0;entryX=0.017;entryY=0.059;entryDx=0;entryDy=0;entryPerimeter=0;" parent="1" target="hNPoDgTNuxjrgSZhUWBY-5" edge="1">
          <mxGeometry width="50" height="50" relative="1" as="geometry">
            <mxPoint x="220" y="560" as="sourcePoint" />
            <mxPoint x="370" y="370" as="targetPoint" />
            <Array as="points">
              <mxPoint x="220" y="510" />
              <mxPoint x="300" y="510" />
              <mxPoint x="300" y="180" />
            </Array>
          </mxGeometry>
        </mxCell>
        <mxCell id="WCWMVQkRDnlybE9e6MJ0-16" value="IN CITIES" style="edgeLabel;html=1;align=center;verticalAlign=middle;resizable=0;points=[];" parent="WCWMVQkRDnlybE9e6MJ0-15" vertex="1" connectable="0">
          <mxGeometry x="-0.2635" y="3" relative="1" as="geometry">
            <mxPoint as="offset" />
          </mxGeometry>
        </mxCell>
      </root>
    </mxGraphModel>
  </diagram>
</mxfile>
